<svg width="30" height="30" viewBox="0 0 30 30" fill="none" xmlns="http://www.w3.org/2000/svg">
<path fill-rule="evenodd" clip-rule="evenodd" d="M27.1912 1.20378C25.5862 -0.401258 22.9838 -0.401264 21.3788 1.20378L1.98299 20.5996C1.40923 21.1734 1.01814 21.9041 0.859015 22.6997L0.054732 26.7211C-0.328713 28.6383 1.36164 30.3287 3.27886 29.9453L7.30026 29.1409C8.09591 28.9819 8.82667 28.5908 9.40042 28.017L28.7962 8.6212C30.4013 7.01616 30.4013 4.41388 28.7962 2.80882L27.1912 1.20378ZM23.3162 3.14124C23.8513 2.60623 24.7187 2.60623 25.2538 3.14124L26.8587 4.74629C27.3939 5.2813 27.3939 6.14873 26.8587 6.68375L23.1987 10.3438L19.6563 6.80129L23.3162 3.14124ZM17.7187 8.73876L3.92045 22.537C3.72919 22.7283 3.59884 22.9719 3.54579 23.2371L2.74151 27.2584L6.76291 26.4541C7.02813 26.4011 7.27171 26.2708 7.46296 26.0796L21.2612 12.2813L17.7187 8.73876Z" fill="#8B79FF"/>
</svg>
