<svg width="34" height="34" viewBox="0 0 34 34" fill="none" xmlns="http://www.w3.org/2000/svg">
<path d="M28.25 7L26.7483 27.0215C26.6169 28.775 26.5511 29.6518 26.1251 30.3167C25.7499 30.902 25.184 31.3725 24.5021 31.6663C23.7275 32 22.7388 32 20.7616 32H13.2383C11.2611 32 10.2725 32 9.49792 31.6663C8.81594 31.3725 8.25011 30.902 7.87497 30.3167C7.44888 29.6518 7.38312 28.775 7.25161 27.0215L5.75 7M2 7H32M24.5 7L23.9926 5.64678C23.5008 4.33542 23.2548 3.67973 22.7988 3.19497C22.3961 2.76688 21.8789 2.43553 21.2947 2.2313C20.633 2 19.8556 2 18.3005 2H15.6995C14.1444 2 13.367 2 12.7053 2.2313C12.1211 2.43553 11.6039 2.76688 11.2012 3.19497C10.7451 3.67973 10.4992 4.33542 10.0075 5.64678L9.5 7M20.75 13.6667V25.3333M13.25 13.6667V25.3333" stroke="#FF8989" stroke-width="3" stroke-linecap="round" stroke-linejoin="round"/>
</svg>
